# xmcd CD database file
#
# Track frame offsets:
#	150
#	25017
#	43097
#
# Disc length: 900 seconds
#
# Revision: 0
# Processed by: cddbd v1.5.1PL0 Copyright (c) Steve Scherf et al.
# Submitted via: CDex 1.51
#
DISCID=1b038203
DTITLE=Notion - Notion
DYEAR=2003
DGENRE=JPop
TTITLE0=autumn leaves(Single Version)
TTITLE1=×××　〜unknown story〜
TTITLE2=スカイ
EXTD=YEAR: 2003
EXTT0=
EXTT1=
EXTT2=
PLAYORDER=
